<svg xmlns="http://www.w3.org/2000/svg" xmlns:xlink="http://www.w3.org/1999/xlink" width="500" zoomAndPan="magnify" viewBox="0 0 375 374.999991" height="500" preserveAspectRatio="xMidYMid meet" version="1.0"><defs><g/><clipPath id="id1"><path d="M 67.242188 314.394531 L 307.992188 314.394531 L 307.992188 360.894531 L 67.242188 360.894531 Z M 67.242188 314.394531 " clip-rule="nonzero"/></clipPath><clipPath id="id2"><path d="M 109.1875 111 L 187 111 L 187 196 L 109.1875 196 Z M 109.1875 111 " clip-rule="nonzero"/></clipPath><clipPath id="id3"><path d="M 163.800781 202.273438 L 180.640625 202.273438 L 180.640625 252.527344 L 163.800781 252.527344 Z M 163.800781 202.273438 " clip-rule="nonzero"/></clipPath><clipPath id="id4"><path d="M 188 111 L 265.746094 111 L 265.746094 196 L 188 196 Z M 188 111 " clip-rule="nonzero"/></clipPath><clipPath id="id5"><path d="M 194.292969 202.273438 L 211.132812 202.273438 L 211.132812 252.527344 L 194.292969 252.527344 Z M 194.292969 202.273438 " clip-rule="nonzero"/></clipPath><clipPath id="id6"><path d="M 157.285156 49.722656 L 220.164062 49.722656 L 220.164062 111.316406 L 157.285156 111.316406 Z M 157.285156 49.722656 " clip-rule="nonzero"/></clipPath></defs><g clip-path="url(#id1)"><path fill="#ed0e64" d="M 307.992188 314.394531 L 67.242188 314.394531 L 81.320312 337.644531 L 67.242188 360.894531 L 307.992188 360.894531 L 293.914062 337.644531 L 307.992188 314.394531 " fill-opacity="1" fill-rule="nonzero"/></g><g fill="#ffffff" fill-opacity="1"><g transform="translate(146.401356, 347.396344)"><g><path d="M 17.265625 0 L 12.796875 0 L 7.9375 -7.828125 L 6.265625 -6.625 L 6.265625 0 L 2.34375 0 L 2.34375 -18.5625 L 6.265625 -18.5625 L 6.265625 -10.0625 L 7.828125 -12.25 L 12.84375 -18.5625 L 17.21875 -18.5625 L 10.734375 -10.34375 Z M 17.265625 0 "/></g></g></g><g fill="#ffffff" fill-opacity="1"><g transform="translate(171.253711, 347.396344)"><g><path d="M 2.34375 0 L 2.34375 -18.5625 L 6.265625 -18.5625 L 6.265625 0 Z M 2.34375 0 "/></g></g></g><g fill="#ffffff" fill-opacity="1"><g transform="translate(187.450464, 347.396344)"><g><path d="M 17.734375 -9.453125 C 17.734375 -6.398438 16.863281 -4.0625 15.125 -2.4375 C 13.382812 -0.8125 10.875 0 7.59375 0 L 2.34375 0 L 2.34375 -18.5625 L 8.15625 -18.5625 C 11.1875 -18.5625 13.539062 -17.757812 15.21875 -16.15625 C 16.894531 -14.5625 17.734375 -12.328125 17.734375 -9.453125 Z M 13.640625 -9.359375 C 13.640625 -13.347656 11.878906 -15.34375 8.359375 -15.34375 L 6.265625 -15.34375 L 6.265625 -3.25 L 7.953125 -3.25 C 11.742188 -3.25 13.640625 -5.285156 13.640625 -9.359375 Z M 13.640625 -9.359375 "/></g></g></g><g fill="#ffffff" fill-opacity="1"><g transform="translate(214.282692, 347.396344)"><g><path d="M 13.296875 -5.15625 C 13.296875 -3.476562 12.691406 -2.15625 11.484375 -1.1875 C 10.273438 -0.226562 8.597656 0.25 6.453125 0.25 C 4.472656 0.25 2.71875 -0.117188 1.1875 -0.859375 L 1.1875 -4.515625 C 2.445312 -3.960938 3.507812 -3.570312 4.375 -3.34375 C 5.238281 -3.113281 6.03125 -3 6.75 -3 C 7.613281 -3 8.273438 -3.160156 8.734375 -3.484375 C 9.203125 -3.816406 9.4375 -4.3125 9.4375 -4.96875 C 9.4375 -5.332031 9.332031 -5.65625 9.125 -5.9375 C 8.925781 -6.21875 8.628906 -6.488281 8.234375 -6.75 C 7.835938 -7.007812 7.035156 -7.429688 5.828125 -8.015625 C 4.691406 -8.546875 3.835938 -9.054688 3.265625 -9.546875 C 2.703125 -10.035156 2.25 -10.601562 1.90625 -11.25 C 1.570312 -11.90625 1.40625 -12.671875 1.40625 -13.546875 C 1.40625 -15.191406 1.960938 -16.484375 3.078125 -17.421875 C 4.191406 -18.359375 5.726562 -18.828125 7.6875 -18.828125 C 8.65625 -18.828125 9.578125 -18.710938 10.453125 -18.484375 C 11.328125 -18.253906 12.242188 -17.929688 13.203125 -17.515625 L 11.9375 -14.453125 C 10.945312 -14.859375 10.125 -15.140625 9.46875 -15.296875 C 8.820312 -15.460938 8.1875 -15.546875 7.5625 -15.546875 C 6.820312 -15.546875 6.25 -15.375 5.84375 -15.03125 C 5.445312 -14.6875 5.25 -14.234375 5.25 -13.671875 C 5.25 -13.328125 5.328125 -13.023438 5.484375 -12.765625 C 5.648438 -12.503906 5.910156 -12.253906 6.265625 -12.015625 C 6.617188 -11.773438 7.453125 -11.34375 8.765625 -10.71875 C 10.492188 -9.882812 11.679688 -9.050781 12.328125 -8.21875 C 12.972656 -7.382812 13.296875 -6.363281 13.296875 -5.15625 Z M 13.296875 -5.15625 "/></g></g></g><g clip-path="url(#id2)"><path fill="#2aa8e2" d="M 186.066406 111.09375 C 186.050781 111.179688 185.960938 111.578125 185.8125 112.246094 C 185.617188 113 185.378906 114.148438 184.949219 115.589844 C 184.085938 118.472656 182.605469 122.617188 180.054688 127.429688 C 175.386719 136.265625 166.011719 143.832031 162.964844 153.28125 C 160.09375 162.222656 164.296875 171.605469 168.566406 179.34375 C 170.246094 182.378906 171.59375 185.472656 172.78125 188.53125 C 173.644531 190.847656 174.277344 193.140625 174.78125 195.417969 C 169.851562 195.203125 165.097656 194.855469 160.632812 194.394531 C 158.328125 189.207031 155.535156 184.191406 152.015625 179.730469 C 151.097656 181.652344 150.28125 183.609375 149.539062 185.597656 C 149.320312 186.191406 149.109375 186.789062 148.898438 187.378906 C 148.667969 187.964844 148.457031 188.558594 148.289062 189.171875 C 147.964844 190.277344 147.632812 191.375 147.296875 192.457031 C 141.734375 191.382812 138.015625 190.207031 135.597656 189.1875 C 135.796875 188.144531 135.992188 187.089844 136.195312 186.019531 C 136.316406 185.304688 136.496094 184.59375 136.6875 183.882812 C 136.730469 183.726562 136.765625 183.574219 136.8125 183.417969 C 136.941406 182.90625 137.066406 182.398438 137.199219 181.878906 C 137.21875 181.828125 137.226562 181.777344 137.242188 181.722656 C 137.375 181.246094 137.496094 180.792969 137.601562 180.351562 C 137.621094 180.28125 137.636719 180.21875 137.65625 180.160156 C 137.78125 179.65625 137.886719 179.191406 137.980469 178.746094 C 138.089844 178.242188 138.175781 177.78125 138.253906 177.339844 C 139.65625 169.109375 135.316406 171.3125 127.09375 177.523438 C 124.761719 179.28125 122.558594 180.941406 120.664062 182.558594 C 116.808594 185.753906 113.921875 188.738281 112.066406 190.917969 C 111.097656 191.992188 110.410156 192.957031 109.933594 193.570312 C 109.449219 194.1875 109.1875 194.519531 109.1875 194.519531 C 109.1875 194.519531 109.257812 194.105469 109.378906 193.332031 C 109.511719 192.554688 109.660156 191.417969 110.09375 189.945312 C 110.867188 186.976562 112.417969 182.785156 115.257812 178.050781 C 116.652344 175.660156 118.386719 173.210938 120.339844 170.664062 C 122.328125 168.152344 124.566406 165.589844 127.019531 163.03125 C 131.945312 157.925781 137.683594 152.867188 143.785156 147.957031 C 149.882812 143.046875 155.730469 138.664062 160.949219 134.566406 C 166.144531 130.460938 170.710938 126.632812 174.4375 123.179688 C 178.160156 119.738281 181.046875 116.699219 183.019531 114.527344 C 184.859375 112.453125 185.933594 111.234375 186.066406 111.09375 " fill-opacity="1" fill-rule="nonzero"/></g><path fill="#2aa8e2" d="M 145.324219 200.546875 C 145.226562 200.96875 145.140625 201.386719 145.050781 201.8125 C 144.960938 202.25 144.875 202.6875 144.785156 203.128906 C 143.113281 211.394531 142.066406 219.148438 141.054688 225.773438 C 139.9375 233.257812 138.914062 239.316406 138.007812 243.472656 C 137.601562 245.550781 137.171875 247.125 136.925781 248.203125 C 136.652344 249.285156 136.511719 249.847656 136.511719 249.847656 C 136.511719 249.847656 136.351562 247.53125 136.054688 243.324219 C 135.773438 239.148438 135.191406 233.085938 134.671875 225.515625 C 134.222656 218.613281 133.738281 210.410156 134.285156 201.082031 C 134.308594 200.625 134.339844 200.167969 134.371094 199.710938 C 134.398438 199.28125 134.425781 198.851562 134.460938 198.410156 C 137.675781 199.203125 141.328125 199.914062 145.324219 200.546875 " fill-opacity="1" fill-rule="nonzero"/><g clip-path="url(#id3)"><path fill="#2aa8e2" d="M 180.335938 252.527344 C 172.738281 235.800781 170.351562 222.722656 166.109375 209.1875 C 165.703125 207.914062 165.289062 206.625 164.851562 205.332031 C 164.699219 204.875 164.542969 204.410156 164.375 203.953125 C 164.226562 203.507812 164.066406 203.066406 163.90625 202.617188 C 167.859375 202.910156 171.980469 203.128906 176.230469 203.257812 C 176.304688 203.707031 176.371094 204.148438 176.453125 204.578125 C 176.53125 205.023438 176.609375 205.472656 176.699219 205.910156 C 176.71875 206.050781 176.742188 206.183594 176.769531 206.324219 C 177.84375 212.007812 178.523438 217.382812 179.023438 222.382812 C 179.773438 229.839844 180.5625 236.890625 180.335938 252.527344 " fill-opacity="1" fill-rule="nonzero"/></g><path fill="#2aa8e2" d="M 152.542969 129.589844 C 152.542969 134.964844 148.171875 139.324219 142.785156 139.324219 C 137.394531 139.324219 133.023438 134.964844 133.023438 129.589844 C 133.023438 124.210938 137.394531 119.851562 142.785156 119.851562 C 148.171875 119.851562 152.542969 124.210938 152.542969 129.589844 " fill-opacity="1" fill-rule="nonzero"/><g clip-path="url(#id4)"><path fill="#ed0e64" d="M 265.746094 194.519531 C 265.746094 194.519531 265.480469 194.1875 264.996094 193.570312 C 264.523438 192.957031 263.835938 191.992188 262.867188 190.917969 C 261.007812 188.738281 258.121094 185.753906 254.265625 182.558594 C 252.371094 180.941406 250.171875 179.28125 247.832031 177.523438 C 239.546875 171.269531 235.207031 169.082031 236.710938 177.523438 C 236.78125 177.964844 236.878906 178.4375 236.992188 178.9375 C 237.089844 179.386719 237.195312 179.851562 237.320312 180.351562 L 237.328125 180.351562 C 237.34375 180.457031 237.371094 180.5625 237.398438 180.675781 L 237.40625 180.675781 C 237.484375 181.011719 237.582031 181.363281 237.679688 181.722656 C 237.722656 181.890625 237.769531 182.066406 237.8125 182.230469 C 237.953125 182.757812 238.085938 183.277344 238.21875 183.792969 C 238.226562 183.824219 238.234375 183.855469 238.242188 183.882812 C 238.4375 184.59375 238.613281 185.304688 238.738281 186.019531 C 238.914062 186.96875 239.085938 187.898438 239.261719 188.828125 C 237.003906 189.890625 233.328125 191.128906 227.582031 192.296875 C 227.265625 191.261719 226.957031 190.222656 226.632812 189.171875 C 226.472656 188.558594 226.25 187.964844 226.03125 187.378906 C 225.820312 186.789062 225.601562 186.191406 225.390625 185.597656 C 224.648438 183.609375 223.832031 181.652344 222.917969 179.730469 C 219.421875 184.15625 216.640625 189.136719 214.34375 194.292969 C 209.878906 194.773438 205.125 195.144531 200.160156 195.371094 C 200.664062 193.117188 201.285156 190.832031 202.148438 188.53125 C 203.339844 185.472656 204.6875 182.378906 206.367188 179.34375 C 210.636719 171.605469 214.835938 162.222656 211.957031 153.28125 C 208.917969 143.832031 199.542969 136.265625 194.878906 127.429688 C 192.324219 122.617188 190.847656 118.472656 189.984375 115.589844 C 189.550781 114.148438 189.316406 113 189.121094 112.246094 C 188.972656 111.578125 188.882812 111.179688 188.863281 111.09375 C 189 111.234375 190.074219 112.453125 191.902344 114.527344 C 193.882812 116.699219 196.769531 119.738281 200.496094 123.179688 C 204.21875 126.632812 208.785156 130.460938 213.980469 134.566406 C 219.203125 138.664062 225.046875 143.046875 231.148438 147.957031 C 237.25 152.867188 242.988281 157.925781 247.910156 163.03125 C 250.367188 165.589844 252.601562 168.152344 254.582031 170.664062 C 256.542969 173.210938 258.28125 175.660156 259.671875 178.050781 C 262.511719 182.785156 264.0625 186.976562 264.839844 189.945312 C 265.269531 191.417969 265.417969 192.554688 265.550781 193.332031 C 265.675781 194.105469 265.746094 194.519531 265.746094 194.519531 " fill-opacity="1" fill-rule="nonzero"/></g><g clip-path="url(#id5)"><path fill="#ed0e64" d="M 211.050781 202.546875 C 210.882812 202.996094 210.726562 203.445312 210.574219 203.890625 C 210.417969 204.347656 210.257812 204.8125 210.097656 205.269531 C 209.65625 206.582031 209.226562 207.886719 208.824219 209.1875 C 204.582031 222.722656 202.191406 235.800781 194.597656 252.527344 C 194.367188 236.890625 195.160156 229.839844 195.910156 222.382812 C 196.410156 217.382812 197.085938 212.007812 198.160156 206.324219 C 198.1875 206.175781 198.214844 206.035156 198.242188 205.886719 C 198.328125 205.445312 198.410156 205 198.480469 204.550781 L 198.488281 204.550781 C 198.558594 204.121094 198.636719 203.679688 198.707031 203.234375 C 202.976562 203.085938 207.097656 202.855469 211.050781 202.546875 " fill-opacity="1" fill-rule="nonzero"/></g><path fill="#ed0e64" d="M 240.25 225.515625 C 239.738281 233.085938 239.160156 239.148438 238.867188 243.324219 C 238.578125 247.53125 238.417969 249.847656 238.417969 249.847656 C 238.417969 249.847656 238.277344 249.285156 238.007812 248.203125 C 237.757812 247.125 237.328125 245.550781 236.925781 243.472656 C 236.015625 239.316406 234.996094 233.257812 233.875 225.773438 C 232.855469 219.113281 231.808594 211.304688 230.117188 202.988281 C 230.03125 202.558594 229.941406 202.117188 229.855469 201.675781 L 229.84375 201.675781 C 229.765625 201.257812 229.667969 200.835938 229.578125 200.40625 C 233.601562 199.753906 237.257812 199.007812 240.453125 198.191406 C 240.453125 198.238281 240.460938 198.277344 240.460938 198.324219 C 240.496094 198.71875 240.523438 199.113281 240.550781 199.5 C 240.578125 199.964844 240.609375 200.414062 240.628906 200.871094 C 241.191406 210.285156 240.707031 218.558594 240.25 225.515625 " fill-opacity="1" fill-rule="nonzero"/><path fill="#ed0e64" d="M 222.386719 129.589844 C 222.386719 134.964844 226.757812 139.324219 232.148438 139.324219 C 237.535156 139.324219 241.90625 134.964844 241.90625 129.589844 C 241.90625 124.210938 237.535156 119.851562 232.148438 119.851562 C 226.757812 119.851562 222.386719 124.210938 222.386719 129.589844 " fill-opacity="1" fill-rule="nonzero"/><path fill="#94c019" d="M 187.023438 78.121094 C 181.160156 62.628906 159.410156 77.34375 175.734375 91.238281 C 180.6875 95.449219 183.632812 95.625 186.914062 102.773438 L 186.914062 103.269531 C 186.949219 103.183594 186.988281 103.105469 187.023438 103.019531 C 187.0625 103.105469 187.101562 103.183594 187.140625 103.269531 L 187.140625 102.773438 C 190.417969 95.625 193.363281 95.449219 198.316406 91.238281 C 214.644531 77.34375 192.890625 62.628906 187.023438 78.121094 " fill-opacity="1" fill-rule="nonzero"/><path fill="#94c019" d="M 255.101562 189.644531 C 255.101562 192.878906 249.625 195.847656 240.453125 198.191406 C 237.257812 199.007812 233.601562 199.753906 229.578125 200.40625 C 224.042969 201.308594 217.8125 202.039062 211.050781 202.546875 C 207.097656 202.855469 202.976562 203.085938 198.707031 203.234375 C 194.914062 203.363281 191.015625 203.433594 187.023438 203.433594 C 183.355469 203.433594 179.746094 203.375 176.230469 203.257812 C 171.980469 203.128906 167.859375 202.910156 163.90625 202.617188 C 157.148438 202.125 150.898438 201.425781 145.324219 200.546875 C 141.328125 199.914062 137.675781 199.203125 134.460938 198.410156 C 124.765625 196.019531 118.949219 192.972656 118.949219 189.644531 C 118.949219 185.964844 126.070312 182.628906 137.65625 180.160156 C 137.636719 180.21875 137.621094 180.28125 137.601562 180.351562 C 132.09375 182.152344 128.898438 184.277344 128.898438 186.542969 C 128.898438 188.460938 131.160156 190.269531 135.175781 191.867188 C 138.113281 193.042969 142.003906 194.097656 146.625 195.003906 C 151.0625 195.871094 156.1875 196.601562 161.8125 197.15625 C 166.054688 197.566406 170.589844 197.882812 175.324219 198.078125 C 179.101562 198.238281 183.019531 198.3125 187.023438 198.3125 C 191.347656 198.3125 195.566406 198.21875 199.613281 198.042969 C 204.375 197.824219 208.917969 197.488281 213.164062 197.058594 C 218.78125 196.488281 223.875 195.730469 228.261719 194.835938 C 232.960938 193.878906 236.851562 192.761719 239.714844 191.515625 C 243.207031 190.015625 245.15625 188.328125 245.15625 186.542969 C 245.15625 184.402344 242.328125 182.410156 237.40625 180.675781 L 237.398438 180.675781 C 237.371094 180.5625 237.34375 180.457031 237.328125 180.351562 C 248.367188 182.800781 255.101562 186.070312 255.101562 189.644531 " fill-opacity="1" fill-rule="nonzero"/><g clip-path="url(#id6)"><path fill="#94c019" d="M 200.515625 49.722656 L 176.9375 49.722656 L 176.9375 68.96875 L 157.285156 68.96875 L 157.285156 92.070312 L 176.9375 92.070312 L 176.9375 111.316406 L 200.515625 111.316406 L 200.515625 92.070312 L 220.164062 92.070312 L 220.164062 68.96875 L 200.515625 68.96875 L 200.515625 49.722656 " fill-opacity="1" fill-rule="nonzero"/></g><g fill="#2aa8e2" fill-opacity="1"><g transform="translate(67.454782, 301.942621)"><g><path d="M 14.609375 0 L 8.203125 -20.859375 L 8.046875 -20.859375 C 8.273438 -16.617188 8.390625 -13.789062 8.390625 -12.375 L 8.390625 0 L 3.34375 0 L 3.34375 -26.59375 L 11.015625 -26.59375 L 17.3125 -6.25 L 17.421875 -6.25 L 24.09375 -26.59375 L 31.78125 -26.59375 L 31.78125 0 L 26.515625 0 L 26.515625 -12.59375 C 26.515625 -13.1875 26.523438 -13.867188 26.546875 -14.640625 C 26.566406 -15.421875 26.648438 -17.484375 26.796875 -20.828125 L 26.625 -20.828125 L 19.765625 0 Z M 14.609375 0 "/></g></g></g><g fill="#2aa8e2" fill-opacity="1"><g transform="translate(107.145957, 301.942621)"><g><path d="M 19.625 0 L 17.703125 -6.328125 L 8 -6.328125 L 6.078125 0 L 0 0 L 9.390625 -26.703125 L 16.28125 -26.703125 L 25.703125 0 Z M 16.34375 -11.0625 C 14.5625 -16.789062 13.554688 -20.03125 13.328125 -20.78125 C 13.109375 -21.539062 12.953125 -22.140625 12.859375 -22.578125 C 12.460938 -21.023438 11.316406 -17.1875 9.421875 -11.0625 Z M 16.34375 -11.0625 "/></g></g></g><g fill="#2aa8e2" fill-opacity="1"><g transform="translate(137.419339, 301.942621)"><g><path d="M 3.34375 0 L 3.34375 -26.59375 L 8.984375 -26.59375 L 8.984375 0 Z M 3.34375 0 "/></g></g></g><g fill="#2aa8e2" fill-opacity="1"><g transform="translate(154.329625, 301.942621)"><g><path d="M 19.046875 -7.390625 C 19.046875 -4.984375 18.179688 -3.085938 16.453125 -1.703125 C 14.722656 -0.328125 12.316406 0.359375 9.234375 0.359375 C 6.398438 0.359375 3.890625 -0.171875 1.703125 -1.234375 L 1.703125 -6.46875 C 3.503906 -5.675781 5.023438 -5.113281 6.265625 -4.78125 C 7.503906 -4.457031 8.640625 -4.296875 9.671875 -4.296875 C 10.910156 -4.296875 11.859375 -4.53125 12.515625 -5 C 13.179688 -5.476562 13.515625 -6.179688 13.515625 -7.109375 C 13.515625 -7.628906 13.367188 -8.09375 13.078125 -8.5 C 12.785156 -8.90625 12.359375 -9.296875 11.796875 -9.671875 C 11.234375 -10.046875 10.082031 -10.648438 8.34375 -11.484375 C 6.71875 -12.242188 5.5 -12.972656 4.6875 -13.671875 C 3.875 -14.378906 3.222656 -15.195312 2.734375 -16.125 C 2.253906 -17.0625 2.015625 -18.15625 2.015625 -19.40625 C 2.015625 -21.757812 2.8125 -23.609375 4.40625 -24.953125 C 6 -26.296875 8.203125 -26.96875 11.015625 -26.96875 C 12.398438 -26.96875 13.71875 -26.800781 14.96875 -26.46875 C 16.226562 -26.144531 17.546875 -25.6875 18.921875 -25.09375 L 17.09375 -20.71875 C 15.675781 -21.300781 14.503906 -21.707031 13.578125 -21.9375 C 12.648438 -22.164062 11.738281 -22.28125 10.84375 -22.28125 C 9.769531 -22.28125 8.945312 -22.03125 8.375 -21.53125 C 7.8125 -21.039062 7.53125 -20.394531 7.53125 -19.59375 C 7.53125 -19.09375 7.644531 -18.65625 7.875 -18.28125 C 8.101562 -17.914062 8.46875 -17.5625 8.96875 -17.21875 C 9.476562 -16.875 10.671875 -16.25 12.546875 -15.34375 C 15.035156 -14.15625 16.738281 -12.960938 17.65625 -11.765625 C 18.582031 -10.578125 19.046875 -9.117188 19.046875 -7.390625 Z M 19.046875 -7.390625 "/></g></g></g><g fill="#2aa8e2" fill-opacity="1"><g transform="translate(179.421396, 301.942621)"><g/></g></g><g fill="#2aa8e2" fill-opacity="1"><g transform="translate(193.677251, 301.942621)"><g><path d="M 14.640625 -22.28125 C 12.515625 -22.28125 10.867188 -21.484375 9.703125 -19.890625 C 8.546875 -18.296875 7.96875 -16.070312 7.96875 -13.21875 C 7.96875 -7.289062 10.191406 -4.328125 14.640625 -4.328125 C 16.503906 -4.328125 18.765625 -4.796875 21.421875 -5.734375 L 21.421875 -1 C 19.242188 -0.09375 16.804688 0.359375 14.109375 0.359375 C 10.242188 0.359375 7.285156 -0.8125 5.234375 -3.15625 C 3.191406 -5.5 2.171875 -8.867188 2.171875 -13.265625 C 2.171875 -16.023438 2.671875 -18.441406 3.671875 -20.515625 C 4.679688 -22.597656 6.128906 -24.191406 8.015625 -25.296875 C 9.898438 -26.410156 12.109375 -26.96875 14.640625 -26.96875 C 17.222656 -26.96875 19.816406 -26.34375 22.421875 -25.09375 L 20.609375 -20.515625 C 19.609375 -20.984375 18.601562 -21.394531 17.59375 -21.75 C 16.59375 -22.101562 15.609375 -22.28125 14.640625 -22.28125 Z M 14.640625 -22.28125 "/></g></g></g><g fill="#2aa8e2" fill-opacity="1"><g transform="translate(221.987081, 301.942621)"><g><path d="M 19.625 0 L 17.703125 -6.328125 L 8 -6.328125 L 6.078125 0 L 0 0 L 9.390625 -26.703125 L 16.28125 -26.703125 L 25.703125 0 Z M 16.34375 -11.0625 C 14.5625 -16.789062 13.554688 -20.03125 13.328125 -20.78125 C 13.109375 -21.539062 12.953125 -22.140625 12.859375 -22.578125 C 12.460938 -21.023438 11.316406 -17.1875 9.421875 -11.0625 Z M 16.34375 -11.0625 "/></g></g></g><g fill="#2aa8e2" fill-opacity="1"><g transform="translate(252.260456, 301.942621)"><g><path d="M 19.625 0 L 17.703125 -6.328125 L 8 -6.328125 L 6.078125 0 L 0 0 L 9.390625 -26.703125 L 16.28125 -26.703125 L 25.703125 0 Z M 16.34375 -11.0625 C 14.5625 -16.789062 13.554688 -20.03125 13.328125 -20.78125 C 13.109375 -21.539062 12.953125 -22.140625 12.859375 -22.578125 C 12.460938 -21.023438 11.316406 -17.1875 9.421875 -11.0625 Z M 16.34375 -11.0625 "/></g></g></g><g fill="#2aa8e2" fill-opacity="1"><g transform="translate(282.533841, 301.942621)"><g><path d="M 3.34375 -26.59375 L 11.625 -26.59375 C 15.394531 -26.59375 18.128906 -26.054688 19.828125 -24.984375 C 21.535156 -23.910156 22.390625 -22.203125 22.390625 -19.859375 C 22.390625 -18.273438 22.015625 -16.972656 21.265625 -15.953125 C 20.523438 -14.929688 19.535156 -14.316406 18.296875 -14.109375 L 18.296875 -13.9375 C 19.984375 -13.5625 21.195312 -12.859375 21.9375 -11.828125 C 22.6875 -10.796875 23.0625 -9.425781 23.0625 -7.71875 C 23.0625 -5.289062 22.1875 -3.394531 20.4375 -2.03125 C 18.6875 -0.675781 16.304688 0 13.296875 0 L 3.34375 0 Z M 8.984375 -16.0625 L 12.265625 -16.0625 C 13.785156 -16.0625 14.890625 -16.296875 15.578125 -16.765625 C 16.265625 -17.242188 16.609375 -18.023438 16.609375 -19.109375 C 16.609375 -20.128906 16.234375 -20.859375 15.484375 -21.296875 C 14.742188 -21.742188 13.566406 -21.96875 11.953125 -21.96875 L 8.984375 -21.96875 Z M 8.984375 -11.59375 L 8.984375 -4.65625 L 12.65625 -4.65625 C 14.207031 -4.65625 15.351562 -4.953125 16.09375 -5.546875 C 16.832031 -6.140625 17.203125 -7.050781 17.203125 -8.28125 C 17.203125 -10.488281 15.628906 -11.59375 12.484375 -11.59375 Z M 8.984375 -11.59375 "/></g></g></g><g fill="#ed0e64" fill-opacity="1"><g transform="translate(157.432243, 266.115208)"><g><path d="M 4.78125 0 L 2.796875 0 L 2.796875 -7.6875 L 0.265625 -7.6875 L 0.265625 -9.34375 L 7.3125 -9.34375 L 7.3125 -7.6875 L 4.78125 -7.6875 Z M 4.78125 0 "/></g></g></g><g fill="#ed0e64" fill-opacity="1"><g transform="translate(168.830989, 266.115208)"><g><path d="M 8.78125 -9.34375 L 8.78125 -3.296875 C 8.78125 -2.609375 8.625 -2.003906 8.3125 -1.484375 C 8 -0.960938 7.550781 -0.5625 6.96875 -0.28125 C 6.382812 -0.0078125 5.695312 0.125 4.90625 0.125 C 3.707031 0.125 2.773438 -0.179688 2.109375 -0.796875 C 1.441406 -1.410156 1.109375 -2.253906 1.109375 -3.328125 L 1.109375 -9.34375 L 3.078125 -9.34375 L 3.078125 -3.625 C 3.078125 -2.90625 3.222656 -2.375 3.515625 -2.03125 C 3.804688 -1.695312 4.285156 -1.53125 4.953125 -1.53125 C 5.597656 -1.53125 6.066406 -1.695312 6.359375 -2.03125 C 6.648438 -2.375 6.796875 -2.910156 6.796875 -3.640625 L 6.796875 -9.34375 Z M 8.78125 -9.34375 "/></g></g></g><g fill="#ed0e64" fill-opacity="1"><g transform="translate(182.54269, 266.115208)"><g><path d="M 3.15625 -5.1875 L 3.796875 -5.1875 C 4.421875 -5.1875 4.878906 -5.289062 5.171875 -5.5 C 5.472656 -5.707031 5.625 -6.035156 5.625 -6.484375 C 5.625 -6.929688 5.472656 -7.25 5.171875 -7.4375 C 4.867188 -7.625 4.394531 -7.71875 3.75 -7.71875 L 3.15625 -7.71875 Z M 3.15625 -3.578125 L 3.15625 0 L 1.171875 0 L 1.171875 -9.34375 L 3.890625 -9.34375 C 5.160156 -9.34375 6.097656 -9.109375 6.703125 -8.640625 C 7.316406 -8.179688 7.625 -7.484375 7.625 -6.546875 C 7.625 -5.992188 7.472656 -5.503906 7.171875 -5.078125 C 6.867188 -4.648438 6.441406 -4.3125 5.890625 -4.0625 C 7.296875 -1.96875 8.210938 -0.613281 8.640625 0 L 6.4375 0 L 4.203125 -3.578125 Z M 3.15625 -3.578125 "/></g></g></g><g fill="#ed0e64" fill-opacity="1"><g transform="translate(195.002074, 266.115208)"><g><path d="M 5.125 0 L 2.875 -7.328125 L 2.828125 -7.328125 C 2.898438 -5.835938 2.9375 -4.84375 2.9375 -4.34375 L 2.9375 0 L 1.171875 0 L 1.171875 -9.34375 L 3.875 -9.34375 L 6.078125 -2.203125 L 6.125 -2.203125 L 8.46875 -9.34375 L 11.15625 -9.34375 L 11.15625 0 L 9.3125 0 L 9.3125 -4.421875 C 9.3125 -4.628906 9.3125 -4.867188 9.3125 -5.140625 C 9.320312 -5.410156 9.351562 -6.132812 9.40625 -7.3125 L 9.34375 -7.3125 L 6.9375 0 Z M 5.125 0 "/></g></g></g><g fill="#ed0e64" fill-opacity="1"><g transform="translate(211.160903, 266.115208)"><g><path d="M 6.890625 0 L 6.21875 -2.21875 L 2.8125 -2.21875 L 2.140625 0 L 0 0 L 3.296875 -9.375 L 5.71875 -9.375 L 9.015625 0 Z M 5.734375 -3.875 C 5.109375 -5.894531 4.753906 -7.035156 4.671875 -7.296875 C 4.597656 -7.554688 4.546875 -7.765625 4.515625 -7.921875 C 4.367188 -7.378906 3.96875 -6.03125 3.3125 -3.875 Z M 5.734375 -3.875 "/></g></g></g></svg>